<svg width="61" height="61" viewBox="0 0 61 61" fill="none" xmlns="http://www.w3.org/2000/svg">
<path d="M15.5466 19.349H30.5466V23.099H15.5466V19.349ZM15.5466 11.849H38.0466V15.599H15.5466V11.849ZM15.5466 4.34897H38.0466V8.09897H15.5466V4.34897Z" fill="#2A8851"/>
<path d="M9.37976 53.099L19.9379 34.3565L33.8766 46.5252C34.298 46.9002 34.7985 47.1752 35.3409 47.3299C35.8832 47.4846 36.4535 47.515 37.0093 47.4188C37.565 47.3226 38.0919 47.1022 38.5507 46.7741C39.0095 46.4461 39.3884 46.0187 39.6591 45.524L52.7279 26.0183L49.6135 23.9296L36.4885 43.5196L36.3573 43.7127L22.4166 31.544C21.9954 31.1712 21.4958 30.8978 20.9548 30.7439C20.4137 30.5901 19.845 30.5597 19.2907 30.6551C18.7363 30.7505 18.2105 30.9692 17.752 31.295C17.2935 31.6209 16.914 32.0456 16.6416 32.5377L8.04663 47.8171V4.34897H4.29663V53.099C4.29663 54.0935 4.69172 55.0474 5.39498 55.7506C6.09824 56.4539 7.05207 56.849 8.04663 56.849H56.7966V53.099H9.37976Z" fill="#2A8851"/>
</svg>
