<svg width="64" height="64" viewBox="0 0 64 64" fill="none" xmlns="http://www.w3.org/2000/svg">
<path d="M10.6404 27.3838C9.86392 27.3851 9.09704 27.588 8.39328 27.9782C7.68952 28.3684 7.06585 28.9366 6.56578 29.643C6.06572 30.3494 5.70132 31.1771 5.498 32.0683C5.29469 32.9595 5.25737 33.8927 5.38864 34.8028C5.51991 35.7129 5.81662 36.578 6.25805 37.3376C6.69948 38.0973 7.27499 38.7333 7.94443 39.2011C8.61388 39.669 9.36111 39.9575 10.134 40.0465C10.9069 40.1355 11.6868 40.0229 12.4193 39.7165" stroke="#2A8851" stroke-width="3" stroke-linecap="round" stroke-linejoin="round"/>
<path d="M8.53906 42.8146C6.74383 41.9503 5.19206 40.6525 4.02381 39.0384C2.85556 37.4243 2.1076 35.5446 1.84743 33.5691C1.58726 31.5936 1.82307 29.5844 2.53359 27.7228C3.2441 25.8613 4.40694 24.2059 5.91717 22.9062M6.00717 22.6632C5.02334 21.1909 4.59214 19.418 4.78989 17.6583C4.98764 15.8986 5.80159 14.2656 7.08765 13.0484C8.37371 11.8313 10.0489 11.1084 11.8167 11.0079C13.5845 10.9073 15.3309 11.4355 16.7467 12.499M17.4607 12.694C16.9821 11.6771 16.7382 10.5657 16.7469 9.44182C16.7557 8.31797 17.0168 7.21046 17.5112 6.20114C18.0055 5.19182 18.7203 4.3065 19.6028 3.61062C20.4852 2.91475 21.5128 2.4261 22.6095 2.18081C23.7062 1.93552 24.8441 1.93985 25.9389 2.19349C27.0337 2.44713 28.0575 2.94358 28.9347 3.64616C29.8118 4.34873 30.5199 5.23947 31.0065 6.25252C31.4931 7.26558 31.7458 8.37505 31.746 9.49893M31.746 9.49893V55.9999M31.746 9.49893C31.7462 8.37505 31.9989 7.26558 32.4856 6.25252C32.9722 5.23947 33.6802 4.34873 34.5574 3.64616C35.4345 2.94358 36.4584 2.44713 37.5532 2.19349C38.648 1.93985 39.7858 1.93552 40.8825 2.18081C41.9792 2.4261 43.0068 2.91475 43.8893 3.61062C44.7718 4.3065 45.4866 5.19182 45.9809 6.20114C46.4752 7.21046 46.7364 8.31797 46.7451 9.44182C46.7539 10.5657 46.5099 11.6771 46.0314 12.694M31.746 55.9999C31.746 57.5912 31.1139 59.1174 29.9887 60.2426C28.8636 61.3678 27.3375 62 25.7463 62C24.1551 62 22.629 61.3678 21.5038 60.2426C20.3787 59.1174 19.7466 57.5912 19.7466 55.9999M31.746 55.9999C31.746 57.5912 32.3781 59.1174 33.5033 60.2426C34.6285 61.3678 36.1545 62 37.7458 62M31.746 16.9991C31.746 19.3861 32.6942 21.6753 34.3819 23.3632C36.0697 25.051 38.3588 25.9993 40.7456 25.9993M57.5749 22.9062C58.8846 24.0314 59.9354 25.4267 60.6552 26.9963C61.3749 28.5659 61.7466 30.2726 61.7447 31.9994C61.7447 34.1084 61.2017 36.0915 60.2447 37.8135M57.4849 22.6632C58.4687 21.1909 58.8999 19.418 58.7022 17.6583C58.5044 15.8986 57.6905 14.2656 56.4044 13.0484C55.1183 11.8313 53.4431 11.1084 51.6753 11.0079C49.9075 10.9073 48.1611 11.4355 46.7453 12.499M57.2449 57.4999L61.7447 62M43.7455 51.4998C43.7455 53.489 44.5356 55.3966 45.9421 56.8032C47.3485 58.2097 49.2561 58.9999 51.2452 58.9999C53.2342 58.9999 55.1418 58.2097 56.5482 56.8032C57.9547 55.3966 58.7448 53.489 58.7448 51.4998C58.7448 49.5106 57.9547 47.6029 56.5482 46.1964C55.1418 44.7898 53.2342 43.9996 51.2452 43.9996C49.2561 43.9996 47.3485 44.7898 45.9421 46.1964C44.5356 47.6029 43.7455 49.5106 43.7455 51.4998Z" stroke="#2A8851" stroke-width="3" stroke-linecap="round" stroke-linejoin="round"/>
</svg>
