<svg id="Layer_1" data-name="Layer 1" xmlns="http://www.w3.org/2000/svg" viewBox="0 0 504 432"><defs><style>.cls-1{fill:#661410;}.cls-2{fill:#65140f;}.cls-3{fill:#6f1e1e;}.cls-4{fill:#661411;}.cls-5{fill:#671411;}.cls-6{fill:#681414;}.cls-7{fill:#6e1e1e;}.cls-8{fill:#6b1818;}.cls-9{fill:#691414;}.cls-10{fill:#671412;}.cls-11{fill:#76292a;}.cls-12{fill:#671410;}.cls-13{fill:#6b1516;}.cls-14{fill:#6d1c1c;}.cls-15{fill:#701e1e;}.cls-16{fill:#691515;}.cls-17{fill:#6c1819;}.cls-18{fill:#6d1f1f;}.cls-19{fill:#6c1d1d;}.cls-20{fill:#742526;}.cls-21{fill:#6a6a69;}</style></defs><title>SVG</title><path class="cls-1" d="M304.82,150l.26.24a18.55,18.55,0,0,1,4.07,4.8c1,1.7,1.62,1.86,3.56,1.29,4.1-1.21,8.19-2.5,12.28-3.76a7.64,7.64,0,0,1,4.54-.14h0a7.69,7.69,0,0,1,5.95,5.78,8.15,8.15,0,0,1-.61,5.2c-2,4.66-4.26,9.17-6.57,13.67a.75.75,0,0,1-.24.26l0,0c-1.45,3.07-3.2,6-4.85,8.92a1.29,1.29,0,0,0,.11,1.62,16.09,16.09,0,0,1,1.07,1.73c.39.7.41,1.06-.57,1.12-3.19.21-6.38.06-9.57.09a2.14,2.14,0,0,1-1.61-.91,44.26,44.26,0,0,0-5.82-5.63c-1.69-1.32-3.53-2.42-5.33-3.57h0c-.35-.13-.76-.14-1-.51l0,0c-.33-.16-.74-.17-1-.49l0,0c-.65-.17-1.24-.51-1.88-.73-.2-.06-.49-.16-.31-.5.7-.4,1.32,0,1.93.24a37.24,37.24,0,0,1,13.5,10.07,2.24,2.24,0,0,0,1.81,1c2.64,0,5.27,0,7.9,0,.81,0,.91-.24.48-.89s-1.34-1.43-1.13-2.54a14.68,14.68,0,0,0,.88-2.13c1-2.53,2.54-4.8,3.79-7.21,2.45-4.72,4.89-9.44,6.92-14.35,1.71-4.12-.45-8.14-4.63-8.89a5.86,5.86,0,0,0-2.73.17c-3.94,1.18-7.89,2.36-11.81,3.6a15.44,15.44,0,0,1-2.21.53,3.59,3.59,0,0,1-4-1.79,23.47,23.47,0,0,0-6.49-7c-1.57-1.16-3.14-2.34-4.69-3.53-3.45-2.64-5.57-6.2-7.27-10.1a132.1,132.1,0,0,0-7.29-15.23,43.52,43.52,0,0,0-3.81-5.37,47.18,47.18,0,0,1-4.88-7.25,58.11,58.11,0,0,1-2.41-5.83,3.47,3.47,0,0,1-.31-1.38,1.81,1.81,0,0,0-.16-1.27,2,2,0,0,1-.09-.33,12,12,0,0,0-.61-3.52,1.08,1.08,0,0,1,0-.75,8.16,8.16,0,0,0,0-4.72c-.12-.47-.24-.94.29-1.26.43.16.59.55.8.9a6.3,6.3,0,0,1,0,2.25,30.62,30.62,0,0,0,1,8.36,32.74,32.74,0,0,1,1.33,3.45A43,43,0,0,0,280.47,115a61.5,61.5,0,0,1,7.75,13.55c1.39,3.09,2.64,6.25,4.15,9.28a19.43,19.43,0,0,0,6,7.15,4.75,4.75,0,0,1,.88.8l0,0a21.65,21.65,0,0,1,4.1,3.16l.22.17A3.62,3.62,0,0,1,304.82,150Z"/><path class="cls-1" d="M271,89.54c-.53,0-.45-.47-.52-.81a7.89,7.89,0,0,1-.49-2.41c-.42-1.85-1.16-3.44-3-4.28a12.62,12.62,0,0,0-9.14-.66c-6.06,1.84-11.86,1.24-17.76-.66a44,44,0,0,0-12.56-2.37,6,6,0,0,0-5.77,3.37c-.12.21-.24.42-.37.62-1.87,2.93-4.28,3.46-7.09,1.41a33.38,33.38,0,0,0-6.81-4c-1.67-.69-3.45-1-5.12-1.7a11.83,11.83,0,0,0-4-.87,2.14,2.14,0,0,1-.74-.56,7.37,7.37,0,0,1-1.38-2.59c-.11-.45-.32-1.07.22-1.25s.42.52.66.8a2.12,2.12,0,0,1,.12.2,7.41,7.41,0,0,0,.8,1.56c.75,1.11,1.94.9,3,1a7.58,7.58,0,0,1,1.8.47h0a12.52,12.52,0,0,1,3.6,1h0a5.28,5.28,0,0,1,1.94.74l0,0a1.68,1.68,0,0,1,1,.46h0a19.45,19.45,0,0,1,5.46,3.2c.56.42,1.16.78,1.74,1.16h0c1.87.16,3-.79,3.86-2.37a7.14,7.14,0,0,1,7.06-4.16A31.91,31.91,0,0,1,235.46,78h0a12,12,0,0,1,4.08,1c.25.24.57.15.87.17,1.7.26,3.28.93,4.94,1.31a19.53,19.53,0,0,0,10.15-.35,17.64,17.64,0,0,1,11-.07,5.66,5.66,0,0,1,3,2h0a4.47,4.47,0,0,1,1.73,3c.09,1,.06,2.06.17,3.09A1.31,1.31,0,0,1,271,89.54Z"/><path class="cls-2" d="M264,246.29a6.33,6.33,0,0,0,2.15,1.2,29.28,29.28,0,0,0,9.13,3.36,30.3,30.3,0,0,0,10.64,1.09,36.31,36.31,0,0,0,11.38-2.62,2.41,2.41,0,0,1,2.8.29,10.8,10.8,0,0,0,7.06,2.21c1.54,0,3.08,0,4.9,0-1.88,1.72-4,2.66-5.83,4A58.52,58.52,0,0,1,296,259.7c-.19.12-.3.34-.53.41a1.78,1.78,0,0,1-.51.06,6,6,0,0,0-3.15.63c-.42.26-.64.77-1.11,1a1.33,1.33,0,0,1-.34.05,1.82,1.82,0,0,1-.79-.38c-1.88-.15-3.73.28-5.62.26-11.2-.17-21.31-3.4-30.07-10.54A47.68,47.68,0,0,1,305,171.36a52.28,52.28,0,0,1,12.3,8.89c.58.54,1,1.23,1.6,1.78a.82.82,0,0,0,1.06.34c.33-.07.66.08.54.4-.61,1.69.67,2.49,1.57,3.48-.15,1.2.86,1.82,1.34,2.71.16.3.52.64.35,1s-.65.16-1,.16c-2.72,0-5.43,0-8.15,0a2.3,2.3,0,0,1-2-.9,34.66,34.66,0,0,0-10.81-8.81l-2.53-1.31a3.22,3.22,0,0,0-2.06-.49,41.34,41.34,0,0,0-12.41-2.41,37.72,37.72,0,0,0-24.36,7.89,3.25,3.25,0,0,0-.41.42A35.38,35.38,0,0,0,250,196.65a36.07,36.07,0,0,0-4,20.76,37.29,37.29,0,0,0,17.22,28.51A6.53,6.53,0,0,0,264,246.29Z"/><path class="cls-1" d="M276.71,116.25a58.06,58.06,0,0,1,7.53,12.48c1.22,2.78,2.54,5.53,3.64,8.35a25.26,25.26,0,0,0,9.32,11.74,35.43,35.43,0,0,1,9.92,9.79c1.32,2.07,3.58,2.13,5.74,1.61s4.52-1.32,6.77-2,4.5-1.42,6.76-2.06a4.08,4.08,0,0,1,5,5.68A164.6,164.6,0,0,1,321,182.7a2,2,0,0,0,.58,2.93c.39.3.55.11.74-.2a3.83,3.83,0,0,1,.76-1.19,3.85,3.85,0,0,1-.93,2,2.81,2.81,0,0,1-1.87-3.2c.21-.53,0-.53-.37-.43-.2-.53.24-.89.36-1.33a173,173,0,0,0,9.48-18.85,11.18,11.18,0,0,0,.57-1.45,2.69,2.69,0,0,0-.54-2.79,2.59,2.59,0,0,0-2.83-.78c-3.61,1.06-7.18,2.22-10.78,3.32-2.17.67-4.36,1.4-6.68.84a5.1,5.1,0,0,1-3.39-2.1c-2.52-4.14-6.14-7.16-10-9.87a27.6,27.6,0,0,1-9.76-12.75,98.31,98.31,0,0,0-6.73-14.18,46.87,46.87,0,0,0-3.45-4.9,45.77,45.77,0,0,1-8.41-15.52,16,16,0,0,1-.94-5.15c.6-.55.82.51,1.34.32.41.34.16.87.35,1.27a34,34,0,0,0,3.45,9.88A76,76,0,0,0,276.71,116.25Z"/><path class="cls-3" d="M271,85a7.77,7.77,0,0,1,.42,4,30.34,30.34,0,0,0,.78,11.15,1.93,1.93,0,0,1,0,.48c-1.05-1.88-1-4-1.19-6-.12-1.67,0-3.36,0-5S271,86.48,271,85Z"/><path class="cls-1" d="M270.29,94.82a19.28,19.28,0,0,1,0-4.8c.26,0,.43.18.43.46,0,1.29,0,2.59,0,3.88C270.73,94.64,270.55,94.77,270.29,94.82Z"/><path class="cls-3" d="M271,99.4a15.91,15.91,0,0,1-.65-3.87c.84.74.3,1.82.65,2.7A3.28,3.28,0,0,1,271,99.4Z"/><path class="cls-3" d="M271.18,100.41a1.49,1.49,0,0,1-.22-1A.67.67,0,0,1,271.18,100.41Z"/><path class="cls-4" d="M182.88,201.51c0-.07,0-.11.05-.15a21.67,21.67,0,0,0,.91-4.6l0,0c.39-.34,0-.85.26-1.22v0c.53-1.14.19-2.48.91-3.85.83,1.55-.08,2.93.18,4.24a12.37,12.37,0,0,1-.54,2.76,8.5,8.5,0,0,0-.72,3.52,4.94,4.94,0,0,1-.34,1.07,3.65,3.65,0,0,0,0,3.27c.64,2.84,2.49,5,4.24,7.15,3.24,4.05,6.22,8.31,9.42,12.4,1.56,2,2.07,4,.84,6.44a6.16,6.16,0,0,0,.16,5.66,5.07,5.07,0,0,0,.53.94c1.8,2.34,1.65,4.75.47,7.32s-2.35,4.9-3.42,7.39c-3.39,7.93-2.31,15.36,2.75,22.26a25.19,25.19,0,0,1,4.66,10.53,23.51,23.51,0,0,1,.18,3.35,22.18,22.18,0,0,0,.53,5.74.83.83,0,0,1-.41.67c-.86-1.05-.8-2.37-1-3.6,0-.25.1-.55-.16-.76-.45-1.52-.2-3.09-.42-4.63a21.26,21.26,0,0,0-4-9.77c-3-4.14-5.17-8.6-5.41-13.83a25,25,0,0,1,3.24-13.08c1-1.9,1.74-3.94,2.62-5.9a4.36,4.36,0,0,0-.47-4.44,8.52,8.52,0,0,1-.82-9.16,3.28,3.28,0,0,0-.49-3.59q-4.05-5.43-8.12-10.83c-1.47-1.94-3-3.84-4.43-5.81a7.39,7.39,0,0,1-1.42-3.13A16.29,16.29,0,0,1,182.88,201.51Z"/><path class="cls-1" d="M183.54,188a5.52,5.52,0,0,0-4.86-1.76,35.53,35.53,0,0,1-3.71.16,7.78,7.78,0,0,1-7.06-4.56c-1-2-1.89-2.45-4.15-1.87-4.94,1.27-9.85,2.64-14.82,3.8a26.57,26.57,0,0,1-12,.26,9.14,9.14,0,0,0-6.22,1.14,14.58,14.58,0,0,1-3.92,1.45,5.34,5.34,0,0,1-4.6-1.08.56.56,0,0,1,0-.75,1.13,1.13,0,0,1,1.14,0,6.71,6.71,0,0,0,5.78-.42,16.23,16.23,0,0,1,5.42-1.82,6.79,6.79,0,0,1,1.91,0,34.32,34.32,0,0,0,16.44-1.18c3.07-.91,6.17-1.67,9.25-2.52a11.52,11.52,0,0,1,1.16-.28c3.13-.57,4.36-.06,5.91,2.69a6.74,6.74,0,0,0,6.47,3.71c1.93,0,3.89-.52,5.82.13a4.56,4.56,0,0,1,2.57,1.64c.22.51.56,1,.78,1.46s.44,1-.12,1.45C184.21,189.16,184.16,188.35,183.54,188Z"/><path class="cls-1" d="M255.33,318.67c-1.34,1.66-2.67,3.33-4,5a19.94,19.94,0,0,1-6.77,5.32,19.14,19.14,0,0,1-8.14.71A20.8,20.8,0,0,0,227,331a10.54,10.54,0,0,1-7.79.13c-.62-.5-1.46-.67-2-1.3a31.62,31.62,0,0,1-2.27-2.36c-.16-.2-.37-.5-.13-.74s.55,0,.8.17a3.9,3.9,0,0,1,.33.38,2.7,2.7,0,0,0,1.57,1.34,17.46,17.46,0,0,0,3.7,1.69,7.5,7.5,0,0,0,4.35-.28,26.8,26.8,0,0,1,12.11-1.6,12.94,12.94,0,0,0,11-4c2.42-2.37,4.19-5.24,6.4-7.76a22,22,0,0,1,4.67-4.27,17.16,17.16,0,0,0,4.16-3.58c.84-.8.85-2,1.23-2.93.13-.32.09-.9.49-.83.55.09.25.65.22,1a7.09,7.09,0,0,1-.59,2.52c-.16.33-.32.65-.49,1-.29.58-.94.88-1.16,1.51a9.72,9.72,0,0,1-2.54,2.1A19.18,19.18,0,0,0,255.33,318.67Z"/><path class="cls-1" d="M122.23,184.72l0,.78c-.44,0-.62-.47-1-.6a7.8,7.8,0,0,0-2-1.74l-.6-.35c-3.16-3-6.23-6.07-9.5-8.92a30.41,30.41,0,0,1-8.2-10.73A21.84,21.84,0,0,0,95,155.28,6.77,6.77,0,0,1,92.7,151c.29-.29-.27-1.29.78-.93a.71.71,0,0,1,.27.21c.6,1.77,1.17,3.55,2.85,4.65a27,27,0,0,1,6.23,9,21.68,21.68,0,0,0,6.24,8.07c1,.8,1.87,1.74,2.79,2.62a96.7,96.7,0,0,1,7.15,6.88,5.31,5.31,0,0,0,1.58,1.55C121.09,183.62,122,183.81,122.23,184.72Z"/><path class="cls-5" d="M215.57,327.11l-.74-.41c.4,1.46,1.86,1.95,2.37,3.13-3.15-2.32-4.9-5.31-4.35-9.34a9.79,9.79,0,0,0-1-5.78c-2.72-5.61-5.4-11.24-8.09-16.86a6.59,6.59,0,0,1-.23-.67.78.78,0,0,1,0-.78.48.48,0,0,1,.23-.48.78.78,0,0,1,.53.17,23.07,23.07,0,0,1,1.72,3.4c2.54,5.24,5.07,10.49,7.53,15.76a8.44,8.44,0,0,1,.72,5,7.81,7.81,0,0,0,1,5.54C215.48,326.18,215.86,326.58,215.57,327.11Z"/><path class="cls-6" d="M183.54,188c.78.15.83.92,1.24,1.51.18-1.09-.79-1.66-.89-2.54.64,0,.88.46,1.14.9a7.73,7.73,0,0,1,.84,4.65c-.07,1-.38,2-.52,3.07a.65.65,0,0,1-.47.62c-.28-1.3.32-2.57.16-4-.7,1.12-.18,2.45-1,3.41.11-1,.19-2,.34-2.94A6.65,6.65,0,0,0,183.54,188Z"/><path class="cls-7" d="M203.55,296.4l0,.78a10.6,10.6,0,0,1-1.2-5.09c.53.93.38,2,.73,3A3.4,3.4,0,0,0,203.55,296.4Z"/><path class="cls-8" d="M119.23,183.16a3,3,0,0,1,2,1.74A8.38,8.38,0,0,1,119.23,183.16Z"/><path class="cls-6" d="M184.08,195.57c0,.42.22.9-.26,1.22A1.81,1.81,0,0,1,184.08,195.57Z"/><path class="cls-1" d="M267.14,85.22a1.28,1.28,0,0,1,.11.2,5.08,5.08,0,0,1,.84,3.63,40.46,40.46,0,0,0,.05,7.3,1.19,1.19,0,0,1-.23,1c-.1.4-.21.8-.53.12a1,1,0,0,0-.46-.5,1.27,1.27,0,0,1-.35-1q0-3.23,0-6.46a15.94,15.94,0,0,0-.21-3A1.25,1.25,0,0,0,265.2,85a14,14,0,0,0-7.93.1,25.66,25.66,0,0,1-15.79-.26,71.81,71.81,0,0,0-12.15-2.78,4.62,4.62,0,0,0-5,2.06,11.64,11.64,0,0,1-2.67,3.06,6.52,6.52,0,0,1-6.89.88A15.66,15.66,0,0,1,212,86.51a32.14,32.14,0,0,0-13.21-5.37A8.27,8.27,0,0,1,192,73.37c0-.4,0-.8,0-1.2,0-.84,0-1.67,0-2.51,0-.38-.05-.91.45-1s.51.44.62.78a2.58,2.58,0,0,0,.2.55c.58,1.36.22,2.84.56,4.24.39,1.62,1,3,2.57,3.81a.57.57,0,0,0,.75-.28l.16-.25c.25-.29.21-.72.53-1l.47.48c.09.36-.13.64-.24,1-.8,1.42-.7,1.64,1.32,1.91a29.51,29.51,0,0,1,10.89,3.81c1.59.91,3,2.11,4.69,2.87,2.67,1.2,4.53.9,6.64-1.17a14.34,14.34,0,0,0,2-2.55A4.71,4.71,0,0,1,228,80.62a51.43,51.43,0,0,1,11.72,2.3c3.46,1,6.88,2,10.54,2a26.45,26.45,0,0,0,6.12-1,18.37,18.37,0,0,1,7.34-.66,5,5,0,0,1,2.47,1A2.91,2.91,0,0,1,267.14,85.22Z"/><path class="cls-9" d="M197.8,76.58c0,.45.12,1-.53,1.15a11.28,11.28,0,0,0-1.12-2.83,5.16,5.16,0,0,1-.64-3.53c.13-.26.85.37.65-.44a.32.32,0,0,1,.45-.35l.48,3.36c-.48-.13-.45-.59-.69-1.25C196.28,74.43,197.22,75.44,197.8,76.58Z"/><path class="cls-9" d="M198,78a1.62,1.62,0,0,1,.24-1,7,7,0,0,1,4.08.73A22.92,22.92,0,0,1,200,77.4,1.59,1.59,0,0,0,198,78Z"/><path class="cls-9" d="M197.79,75.39c.83,1,2.1.81,3.16,1.17a5,5,0,0,1-2.4-.24A1,1,0,0,1,197.79,75.39Z"/><path class="cls-1" d="M196.61,70.58c-.57.54-.09,1.17-.14,1.79-.83,0-.39-.84-.8-1.07-.54-.58-.44-1.34-.57-2-.09-.47-.09-1-.2-1.43-.79-3.55-2.72-5.24-6.37-5.3-4.79-.09-9.6-.19-14.39,0a66.61,66.61,0,0,0-18.69,3.34,7.52,7.52,0,0,1-7.3-1,4.9,4.9,0,0,0-6.19-.15A58.13,58.13,0,0,0,131.4,73a17.24,17.24,0,0,1-1.91,1.81c-1.56,1.08-2.46,2.75-3.63,4.18-.1.12-.18.26-.28.38-.27.31-.51,1-.91.76-.59-.32.08-.8.14-1.23l.43-.67a2.37,2.37,0,0,0,.76-1l0,0a2.39,2.39,0,0,0,.74-1l0,0c.4-.49,1-.83,1.21-1.47l0,0a2.66,2.66,0,0,0,.77-1,51.26,51.26,0,0,1,10-8.7c.89-.61,1.85-1.12,2.73-1.74a6.43,6.43,0,0,1,4.28-1.23,11,11,0,0,1,3.57,1.7,5.52,5.52,0,0,0,5.46.72c10.95-3.7,22.26-4,33.64-3.5C194,61.39,196.71,64.64,196.61,70.58Z"/><path class="cls-1" d="M96.27,119.29a9,9,0,0,1,1.25-7.53,84.31,84.31,0,0,1,6.9-9.18c2.71-3.24,5.48-6.43,8.22-9.65,1.73-2,4.08-3.16,6.4-4.32a14.93,14.93,0,0,0,4-2.7,3.19,3.19,0,0,0,.92-2.1c0-.25.12-.49.4-.51s.44.31.43.57a4.56,4.56,0,0,1-1.23,2.88,17.4,17.4,0,0,0-1.37,1.48,4.63,4.63,0,0,1-1.78,1.18c-2.41,1.25-5,2.31-6.78,4.42-3,3.42-5.93,6.81-8.79,10.3a95.84,95.84,0,0,0-6,8,8.39,8.39,0,0,0-1.43,6.61,2.34,2.34,0,0,1,0,1C96.69,120.84,96.59,119.7,96.27,119.29Z"/><path class="cls-5" d="M96.27,119.29c.36-.06.46,1.45,1,.17.54.18.5.67.57,1.08a30.19,30.19,0,0,1-2,17.94c-1.33,2.08-1.33,4.47-1.62,6.8a7,7,0,0,1-.34,1.51,7.18,7.18,0,0,0-.15,2.12,1.88,1.88,0,0,1-.33,1.34c-.82-.33-.27.67-.7.72l0-.43c-.35-1.82.21-3.61.22-5.41a16.18,16.18,0,0,1,1.41-6.72c2.9-6,3.27-12.3,2-18.76A2.16,2.16,0,0,1,96.27,119.29Z"/><path class="cls-10" d="M122,88.15c.28-.69.93-1.06,1.4-1.59a4,4,0,0,0,1.1-3.06c-.6.74-.32,2-1.39,2.41a6.39,6.39,0,0,0,.81-3.67,4,4,0,0,1,.91-3.34l-.22,1.24,3.11-4a4.07,4.07,0,0,1,1.52-1.45c.22.52-.17.82-.44,1.15-.71.86-1.38,1.75-2.08,2.62a6.53,6.53,0,0,0-1.56,4.76,5.26,5.26,0,0,1-2,4.51C122.8,88,122.5,88.38,122,88.15Z"/><path class="cls-11" d="M92.88,145.13c.18,1.81-.29,3.6-.22,5.41A13,13,0,0,1,92.88,145.13Z"/><path class="cls-10" d="M127.91,74.84c0,.8-.61,1.14-1.21,1.47A4.11,4.11,0,0,1,127.91,74.84Z"/><path class="cls-10" d="M126,77.25a.9.9,0,0,1-.76,1A2.22,2.22,0,0,1,126,77.25Z"/><path class="cls-10" d="M126.72,76.29a.91.91,0,0,1-.74,1A1.81,1.81,0,0,1,126.72,76.29Z"/><path class="cls-10" d="M128.66,73.9a.92.92,0,0,1-.77,1A2.08,2.08,0,0,1,128.66,73.9Z"/><path class="cls-2" d="M296.71,194.11a21.08,21.08,0,0,0-9.82-3.78c-7.38-1-13.78,1.25-19.37,6.06-1.7,1.47-3.62,1.81-5,.94-2.27-1.39-2.46-4.36-.38-6.36A29.2,29.2,0,0,1,277,183.2c10.08-2,19.17.21,27.13,6.8.18.15.35.32.59.55a5.43,5.43,0,0,1-1.87.73,10.35,10.35,0,0,0-4,2.55c-.7.77-1.3.9-2.1.28Z"/><path class="cls-12" d="M276.27,285.84a11.89,11.89,0,0,1-.28,6.45,9.3,9.3,0,0,1-5,4.54,9.79,9.79,0,0,0-3.8,2.95c-.4.21-.41.62-.53,1v0a6,6,0,0,0-.77,2.58c0,.29.05.75-.4.71s-.35-.47-.38-.78a6.58,6.58,0,0,1,.63-2.89c.17-.44.42-.85.57-1.31.53-1.4,1.77-2.09,2.93-2.85a6.61,6.61,0,0,1,1.27-.65c3.43-1.43,4.81-4.09,4.67-7.68,0-.2,0-.4,0-.6.11-1.28-.26-2.63.35-4C276.35,284.11,275.94,285.07,276.27,285.84Z"/><path class="cls-13" d="M266.66,299c-.46,1.57-1.52,3-1.1,4.91.22-.88.44-1.62.6-2.37.07-.37.13-.7.55-.81a19.51,19.51,0,0,0-.72,5.48,3.57,3.57,0,0,1-.77,2.4c.08-1.1.62-2.14.42-3.51-.3,1.07-.49,1.95-.8,2.79-.16.45-.26,1-.88,1.19a.64.64,0,0,1,0-.57,11.69,11.69,0,0,0,.77-5,8.48,8.48,0,0,1,1-3.64C265.87,299.47,266.05,299,266.66,299Z"/><path class="cls-13" d="M263.57,311.1c0-.78.66-1.1,1.16-1.51A2.69,2.69,0,0,1,263.57,311.1Z"/><path class="cls-13" d="M266.7,300.76c-.07-.46,0-.86.53-1A1.86,1.86,0,0,1,266.7,300.76Z"/><path class="cls-1" d="M295,259.92h.48c.07,1.05-.65,1.78-1.09,2.63s-1.06,1.45-1.52,2.24a24.57,24.57,0,0,1-4.84,4.55c-.35.26-.67.56-1,.84-2.85,1.95-5.76,3.81-8.79,5.47a6.61,6.61,0,0,0-1.94,2,6.78,6.78,0,0,0-.64,4.36c.05.37.39,1-.22,1.1s-.63-.62-.66-1.08a9.42,9.42,0,0,1,.91-5.43,4.59,4.59,0,0,1,2.53-2.6,58.31,58.31,0,0,0,12-8.32,1.23,1.23,0,0,1,.31-.19,4.59,4.59,0,0,0,1.87-1.68,1.44,1.44,0,0,1,.18-.25,2.57,2.57,0,0,0,.58-.91,2.3,2.3,0,0,1,.52-.81C294.26,261.35,294.47,260.53,295,259.92Z"/><path class="cls-14" d="M276,276.44a10.4,10.4,0,0,0-.94,5.33c0,.42-.06.88.5,1.32-.21-1.94-.64-3.82.71-5.41-.87,2.24-.46,4.49-.07,6.74a9.58,9.58,0,0,1,.06,1.42c-.51-.63-.09-1.54-.76-2.25v4c-.56-.17-.5-.66-.54-1.08-.14-1.67-.39-3.32-.62-5a7.91,7.91,0,0,1,.61-4.08C275.15,277,275.35,276.45,276,276.44Z"/><path class="cls-1" d="M289.74,262.88a18.59,18.59,0,0,1-5.08,4.48c-2.68,1.75-5.32,3.55-8.07,5.16-3.27,1.92-4.92,4.57-4.36,8.41a2.7,2.7,0,0,1,0,1,.48.48,0,0,1-.49.26,1,1,0,0,1-.36-.16,8.29,8.29,0,0,1,3.56-9.69c3.49-2.3,7.11-4.42,10.5-6.89.9-.65,1.72-1.42,2.57-2.14a4.44,4.44,0,0,0,1.37-1.52c-.07-.4.24-.53.49-.71,0,.3.14.52.48.53C290.53,262.2,289.76,262.35,289.74,262.88Z"/><path class="cls-8" d="M118.87,181.6a4.63,4.63,0,0,1,1.61,1.53A2.76,2.76,0,0,1,118.87,181.6Z"/><path class="cls-15" d="M267.14,85.22a2.37,2.37,0,0,1-.95-1A1.06,1.06,0,0,1,267.14,85.22Z"/><path class="cls-8" d="M191.79,66.5A5,5,0,0,1,193,70.33c-.56-.32,0-1.11-.79-1.5v3.52a6.15,6.15,0,0,1-.23-2.13,5.34,5.34,0,0,0-1.7-3.94c1.16-.37,1.19.72,1.63,1.23-.05-.13-.14-.29-.21-.46S191.61,66.67,191.79,66.5Z"/><path class="cls-15" d="M266.64,86.24l-1.21-1.49A1.29,1.29,0,0,1,266.64,86.24Z"/><path class="cls-13" d="M290.71,265.69c.61-.66,1.22-1.32,1.84-2A3.08,3.08,0,0,1,290.71,265.69Z"/><path class="cls-13" d="M292.53,263.73a2.55,2.55,0,0,1,.74-1A.91.91,0,0,1,292.53,263.73Z"/><path class="cls-1" d="M96.34,145.47c.17-4.15,2.34-7.73,3.32-11.65.09-.34.17-.69.25-1a26,26,0,0,0,.45-4v-4.3c0-.84-.19-1.67-.12-2.51a6.94,6.94,0,0,0-.27-2.22c-.11-.4-.27-1,.26-1.1s.42.53.49.91a6.88,6.88,0,0,0,.42,1.9,24.35,24.35,0,0,1,.13,10.2,40.24,40.24,0,0,1-2.52,8.1,23.62,23.62,0,0,0-1.46,10,3.66,3.66,0,0,0,1.38,2.71,23.74,23.74,0,0,1,6.82,9.43,21.89,21.89,0,0,0,6,7.84c3.89,3.43,7.61,7.07,11.4,10.63,1.93,1.81,3.43,2,5.74.76a16.23,16.23,0,0,1,3.6-1.63,7.15,7.15,0,0,1,3.3-.37c6.25,1.41,12.32.58,18.3-1.38a95.73,95.73,0,0,1,9.27-2.44c3-.66,6.58-.35,8.5,3.6,1.28,2.64,3.56,3.08,6.18,2.74a11.62,11.62,0,0,1,4.28.09,9.61,9.61,0,0,1,6.89,11.51c-.09.1-.12.24-.25.31a.77.77,0,0,1-.53-.12l-.19-.19a11.42,11.42,0,0,0-.62-5.76,8.07,8.07,0,0,0-9-4.84c-4,.64-6-.29-8-3.8-1.35-2.34-3.73-3.24-6.74-2.57-4,.89-8,2.07-12,3.22a32.28,32.28,0,0,1-15.16.86,9.71,9.71,0,0,0-6.65,1.37c-3.55,1.94-5.17,1.7-8.12-1.07s-6-5.87-9.19-8.56-6.23-5.31-7.85-9.28a26.73,26.73,0,0,0-4.41-7.23,6.9,6.9,0,0,0-1.36-1.34c-2.37-1.62-3.09-4-2.87-6.67A3.65,3.65,0,0,1,96.34,145.47Z"/><path class="cls-1" d="M191.79,66.5c0,.59.62,1,.41,1.74-.69-.64-.71-1.89-1.89-2a10.14,10.14,0,0,0-3.73-.72c-10.6-.31-21.06.49-31.25,3.71a8.73,8.73,0,0,1-8.5-1.41c-1.57-1.25-2.91-1.13-4.66.32-2.73,2.27-5.42,4.6-8.11,6.93-1.08.94-2.09,2-3.14,2.94a10.57,10.57,0,0,0-3,5.55c-.71-1.21.12-2.2.29-3.27a5.56,5.56,0,0,1,1.69-2.54c3.64-4.06,7.94-7.41,12.15-10.82a4,4,0,0,1,5.31,0,7.72,7.72,0,0,0,7.56,1.36c10.56-3.41,21.43-4.12,32.43-3.72C189,64.63,190.75,64.8,191.79,66.5Z"/><path class="cls-4" d="M188.19,193.21l.46.23a10.41,10.41,0,0,1-.37,2.66c-.08.83-.2,1.65-.29,2.48a33.53,33.53,0,0,1-.83,4.45,8.25,8.25,0,0,0,1.83,7c3.85,4.89,7.62,9.85,11.34,14.83a7.62,7.62,0,0,1,.95,8.44,3.69,3.69,0,0,0,.38,4.22c2.53,3.46,2.2,7.12.38,10.74A65.75,65.75,0,0,0,197.58,259c-.3.19,0,.78-.52.83a.41.41,0,0,1-.32-.17,2.64,2.64,0,0,1,0-.93c.37-1.38,1-2.7,1.25-4.11a65.93,65.93,0,0,1,3.11-6.85c1.21-2.61,1.84-5.27.56-8.08a9.67,9.67,0,0,0-1.12-1.82,4.2,4.2,0,0,1-.42-4.53c1.44-3.09.91-5.85-1.13-8.49-3.72-4.79-7.37-9.63-11.07-14.43a8.47,8.47,0,0,1-1.79-7.73c.45-1.68.72-3.42,1.07-5.13C187.73,196.13,187.6,194.59,188.19,193.21Z"/><path class="cls-1" d="M260.45,308.69a7.09,7.09,0,0,1-1.93,1.93c-3.94,2.67-6.83,6.34-9.69,10-.59.76-1.17,1.53-1.81,2.24-2.45,2.77-5.6,3.64-9.18,3.39-4.42-.3-8.75-.11-12.94,1.63a5.82,5.82,0,0,1-5.78-1,1.18,1.18,0,0,1-.23-.27c-.43-.48-1.36-1.09-.92-1.55s.87.56,1.36.85a3.38,3.38,0,0,0,.6.38,6.44,6.44,0,0,0,5.74.17c4-1.65,8.13-1.57,12.28-1.29a10,10,0,0,0,9.16-4.08,64,64,0,0,1,7.19-8.48,20.81,20.81,0,0,1,2.1-1.78,15.68,15.68,0,0,0,4.43-4.46c.28-.1.41-.65.74-.42s0,.64-.1.93C261.16,307.56,260.8,308.12,260.45,308.69Z"/><path class="cls-5" d="M219.93,326.37c-.9,0-1.12-1-1.85-1.27-.12.75.68,1,.81,1.59a5.51,5.51,0,0,1-2.41-4.07,1.73,1.73,0,0,1,0-.6c.83-4.7-1.22-8.63-3.33-12.56a78.3,78.3,0,0,1-6.67-15.59,31.24,31.24,0,0,1-1.49-8.69,17.09,17.09,0,0,0-.75-4.34c0-.25.57.22.33-.27s-.59-1.12-.84-1.7c-.17-.37-.52-.74-.17-1.19a9.62,9.62,0,0,1,2.34,6c.29,7.25,2.57,13.91,5.7,20.35,1.43,2.93,3,5.83,4.42,8.75a13.59,13.59,0,0,1,1.51,8.33C217.17,323.34,218.28,325,219.93,326.37Z"/><path class="cls-1" d="M100.58,114a14.73,14.73,0,0,1,2.44-3.92c3.85-5,8.06-9.77,12.19-14.58a16.28,16.28,0,0,1,5.5-3.74c2.16-1,4.29-2.12,5.76-4.13a2.37,2.37,0,0,0,.64-1.13c.09-.27.16-.62.5-.51s.2.5.11.8a10.23,10.23,0,0,1-.7,1.64A9,9,0,0,1,122.41,92a23.43,23.43,0,0,0-9.1,7.2c-3.17,4-6.6,7.71-9.65,11.77a35,35,0,0,0-2.28,3.5,6.73,6.73,0,0,0-.8,2.55c0,.24,0,.63-.45.54s-.37-.35-.33-.67C99.94,115.91,100.4,115,100.58,114Z"/><path class="cls-10" d="M260.45,308.69l1.13-2.45c-.35-.18-.48.26-.75.21a14,14,0,0,0,1-5.24c0-3.22,1.41-5.58,4.52-6.78,2.53-1,4.52-2.49,5.24-5.27.83-1.74.49-3.53.15-5.3a3.19,3.19,0,0,1,0-1.86h.45c.59,2.82,1,5.64,0,8.46a7.31,7.31,0,0,1-3.51,4.06,9.09,9.09,0,0,1-1.72.83c-3,1-4.12,3.25-4.12,6.19a10.83,10.83,0,0,1-1.93,6.65A5.79,5.79,0,0,1,260.45,308.69Z"/><path class="cls-4" d="M203.55,277.68c.29,1.26,1.27,2.26,1.48,3.57-.52.19-.47-.42-.8-.41h0a4.62,4.62,0,0,0-1.23-2.4l0,0a26.44,26.44,0,0,0-2.86-4.51,7.21,7.21,0,0,0-1.49-2l0,0c-.49-1.33-1.25-2.54-1.67-3.89a2.11,2.11,0,0,1-.31-1.18.39.39,0,0,1,.47-.4c.2,0,.26.23.38.36.19.3-.14.73.23,1,.28.61.2,1.37.77,1.86l0,0a3.74,3.74,0,0,0,.7,1.48l.71,1.18c.39.44.57,1,1,1.41l0,0c.06.44.47.66.66,1l.48.71c.38.45.63,1,1,1.45Z"/><path class="cls-16" d="M127,88.4l.77-2.44c-.78.5-.57,1.45-1.32,1.64a8.7,8.7,0,0,0,.77-3.67,6.08,6.08,0,0,1,.92-3.6c.11,1-.74,1.87-.33,3.06.52-1,.4-2.11,1-3s1-1.91,2-2.38a10,10,0,0,0-2.69,7.31A4.19,4.19,0,0,1,127,88.4Z"/><path class="cls-17" d="M100.58,114c.12,1.18-.77,2.23-.49,3.66.65-1.1.37-2.37,1.29-3.12-.95,2.28-.66,4.6-.24,6.92-.71-.72-.34-1.8-.91-2.6-.14,1.06.32,2.1.1,3.15a.12.12,0,0,1-.19-.08c0-1.4-.6-2.73-.52-4.15A8.71,8.71,0,0,1,100.58,114Z"/><path class="cls-18" d="M197.56,266.88l-.27-.24c-.19-.14-.41-.28-.46-.53a10.47,10.47,0,0,1,.25-6.43l.5-.71A19.87,19.87,0,0,0,197.56,266.88Z"/><path class="cls-19" d="M271.71,282c.09,1.83.71,3.62.49,5.49-.07.61,0,1.25-.6,1.67a12.65,12.65,0,0,0-.08-5.74,11,11,0,0,1-.09-1.41Z"/><path class="cls-14" d="M188,198.58a16.88,16.88,0,0,1,.66-5.14l.25-.23A44.6,44.6,0,0,1,188,198.58Z"/><path class="cls-20" d="M289.43,261.77c-.08.85-.67,1.23-1.37,1.52C288.52,262.79,289,262.28,289.43,261.77Z"/><path class="cls-5" d="M198.56,269.74c-.77-.41-.71-1.16-.77-1.86A6.31,6.31,0,0,1,198.56,269.74Z"/><path class="cls-5" d="M203.1,277a2.26,2.26,0,0,1-1-1.45A2.13,2.13,0,0,1,203.1,277Z"/><path class="cls-5" d="M201,273.79a1.86,1.86,0,0,1-1-1.41A2.82,2.82,0,0,1,201,273.79Z"/><path class="cls-5" d="M199.24,271.2a1.43,1.43,0,0,1-.7-1.48A2.83,2.83,0,0,1,199.24,271.2Z"/><path class="cls-5" d="M201.63,274.8c-.39-.24-.76-.48-.66-1A1.45,1.45,0,0,1,201.63,274.8Z"/><path class="cls-19" d="M272.21,290.45c.75-2.82.22-5.64,0-8.46,0-.35,0-.7.07-1.06.45,2.76,1.06,5.51.45,8.33A2.18,2.18,0,0,1,272.21,290.45Z"/><path class="cls-5" d="M198.67,272a12.59,12.59,0,0,1,3,3.93c.5.81,1.51,1.39,1.36,2.56Z"/><path class="cls-18" d="M196.86,258.71l0,1a41.71,41.71,0,0,0-.07,6.89.66.66,0,0,1-.2.34,16.21,16.21,0,0,1,.25-8.71A.38.38,0,0,1,196.86,258.71Z"/><path class="cls-5" d="M197.11,268.07c.46,1.34,1.47,2.44,1.58,3.92A10.21,10.21,0,0,1,197,268.4.21.21,0,0,1,197.11,268.07Z"/><path class="cls-14" d="M188.19,193.21c-.32,1.44-.28,3-1,4.32a33.25,33.25,0,0,1,.71-4.32Z"/><path class="cls-5" d="M196.86,258.71l-.05-.51a16.28,16.28,0,0,1,1.2-3.61A16.1,16.1,0,0,1,196.86,258.71Z"/><path class="cls-5" d="M203,278.44a2.28,2.28,0,0,1,1.23,2.4Z"/><path class="cls-18" d="M197.11,268.07l-.07.33a2.57,2.57,0,0,1-.48-1.49l.09-.08c.08-.06.14-.05.18.05Z"/><path class="cls-5" d="M196.83,266.88a.35.35,0,0,1-.18-.05c-.09-2.13-.46-4.25-.06-6.39,0-.27,0-.56.24-.76h.25a19.18,19.18,0,0,0,0,6.28c0,.23.14.45.21.68A.47.47,0,0,0,196.83,266.88Z"/><path class="cls-21" d="M307.67,207v8.15h-5.22V193.18h8.65a12.39,12.39,0,0,1,4.43.62,6.52,6.52,0,0,1,2.74,2.21,6.26,6.26,0,0,1,1.21,3.91,8.17,8.17,0,0,1-.65,3.17,5.65,5.65,0,0,1-1.81,2.43,6.52,6.52,0,0,1-2.28,1.17,15,15,0,0,1-3.45.29Zm-.17-4h3.34a3.44,3.44,0,0,0,2.69-.88,3,3,0,0,0,.77-2,2.74,2.74,0,0,0-.86-2.12,3.72,3.72,0,0,0-2.61-.79H307.5Z"/><path class="cls-21" d="M334.26,202.81l-3.49.94a2.92,2.92,0,0,0-3.17-2.21c-1.61,0-2.41.49-2.41,1.47a1.1,1.1,0,0,0,.44.93,5.82,5.82,0,0,0,2.31.58,21.77,21.77,0,0,1,4.11.85,4.2,4.2,0,0,1,2.12,1.63,4.87,4.87,0,0,1,.78,2.81A5.09,5.09,0,0,1,333,213.9a8.12,8.12,0,0,1-5.33,1.57q-6.21,0-7.41-4.81l4-.59c.34,1.46,1.54,2.18,3.61,2.18a4.39,4.39,0,0,0,2-.42,1.31,1.31,0,0,0,.82-1.16c0-.75-.61-1.19-1.82-1.33q-4.92-.6-6.47-1.89a4.33,4.33,0,0,1-1.55-3.56,4.8,4.8,0,0,1,1.8-3.83,7.67,7.67,0,0,1,5-1.51,7.36,7.36,0,0,1,4.11,1A6.34,6.34,0,0,1,334.26,202.81Z"/><path class="cls-21" d="M350.27,198.89l-5.09,15.58a26.27,26.27,0,0,1-1.46,3.77,4.72,4.72,0,0,1-1.73,1.87,6,6,0,0,1-3.16.7,15.56,15.56,0,0,1-2.31-.19v-3.69a13.71,13.71,0,0,0,2.36.23,2.58,2.58,0,0,0,1.9-.53,3.63,3.63,0,0,0,.73-1.5l-5.92-16.24h5.07l3.13,9.67,3-9.67Z"/><path class="cls-21" d="M366.26,209a6.79,6.79,0,0,1-2.28,4.65,8.21,8.21,0,0,1-10.77-.49,8.49,8.49,0,0,1-2.16-6.09,8.67,8.67,0,0,1,2.21-6.18,7.66,7.66,0,0,1,5.91-2.38,7.05,7.05,0,0,1,4.93,1.79,6.54,6.54,0,0,1,2.16,4.47l-4.47.26c-.15-1.95-1-2.93-2.54-2.93q-2.85,0-2.85,4.66c0,2.07.27,3.39.8,3.94a2.55,2.55,0,0,0,1.93.84c1.48,0,2.37-.94,2.66-2.81Z"/><path class="cls-21" d="M373.71,193.18v7.92a4.54,4.54,0,0,1,4.38-2.55,5.24,5.24,0,0,1,2.81.72,4,4,0,0,1,1.64,1.84,8.77,8.77,0,0,1,.48,3.3v10.72h-4.8V206a13.86,13.86,0,0,0-.12-2.25,2,2,0,0,0-.59-1,1.67,1.67,0,0,0-1.15-.41,2.87,2.87,0,0,0-1.77.7c-.59.47-.88,1.47-.88,3v9.16h-4.65V193.18Z"/><path class="cls-21" d="M404.29,203.39v11.74h-2.35a17.27,17.27,0,0,0-.73-2.52,7.39,7.39,0,0,1-6,2.86,8,8,0,0,1-6.69-3.07,12.59,12.59,0,0,1-2.39-7.94A13.08,13.08,0,0,1,388.7,196a9.29,9.29,0,0,1,12.84-1.13,8.91,8.91,0,0,1,2.75,5.49l-4.89.64q-.58-4-3.78-4a3.44,3.44,0,0,0-3.16,1.89,11.14,11.14,0,0,0-1.07,5.4,9.53,9.53,0,0,0,1.16,5.16,3.7,3.7,0,0,0,3.3,1.78,3.78,3.78,0,0,0,2.47-.9,3.54,3.54,0,0,0,1.08-2.88h-4.13v-4.1Z"/><path class="cls-21" d="M422.7,207.82H412.25c0,.29,0,.54,0,.75a3.44,3.44,0,0,0,.92,2.62,3.09,3.09,0,0,0,2.21.89,2.72,2.72,0,0,0,2.88-2.56l4.34.32q-1.81,5.64-7.38,5.63a8.13,8.13,0,0,1-4.12-1,7.64,7.64,0,0,1-2.8-2.84,8.57,8.57,0,0,1-1.1-4.47,8.82,8.82,0,0,1,2.21-6.26,7.81,7.81,0,0,1,11.06-.17C422,202.24,422.7,204.59,422.7,207.82ZM412.24,205H418q-.22-3.34-2.75-3.34Q412.56,201.69,412.24,205Z"/><path class="cls-21" d="M439.85,215.13h-4.8V206a14,14,0,0,0-.12-2.27,1.86,1.86,0,0,0-.63-1,1.89,1.89,0,0,0-1.26-.43q-2.52,0-2.52,3.74v9.11h-4.79V198.89h4.45v2.75a6.13,6.13,0,0,1,2.19-2.52,4.93,4.93,0,0,1,2.33-.57,5.43,5.43,0,0,1,3.73,1.25q1.43,1.24,1.42,4.9Z"/><path class="cls-2" d="M313.23,223.93l6.88,21.95h-5.53l-1.35-4.52h-7.1l-1.38,4.52h-4.5l7-21.95Zm-5.87,13.38H312l-2.3-7.71Z"/><path class="cls-2" d="M327.25,233.37v12.51h-4.67V233.37H320.7v-3.74h1.88a15.1,15.1,0,0,1,.36-3.65,3.79,3.79,0,0,1,1.7-2,6.78,6.78,0,0,1,3.72-.89,15.93,15.93,0,0,1,2.22.18v3.7c-.69-.06-1.26-.08-1.71-.08a1.42,1.42,0,0,0-1.3.51,3.21,3.21,0,0,0-.32,1.67v.61h2.94v3.74Z"/><path class="cls-2" d="M337.43,245.88h-4.65V229.63h4.39v3q1-3.37,3.5-3.38c.24,0,.53,0,.87.05v4.73a4.73,4.73,0,0,0-2.27.45,3.27,3.27,0,0,0-1.33,1.61,8,8,0,0,0-.51,3.15Z"/><path class="cls-2" d="M349,223.48v4.79h-4.79v-4.79Zm0,6.15v16.25h-4.79V229.63Z"/><path class="cls-2" d="M367.22,239.78a6.87,6.87,0,0,1-2.27,4.66,7.53,7.53,0,0,1-5.17,1.77,7.38,7.38,0,0,1-5.61-2.27,8.49,8.49,0,0,1-2.16-6.09,8.71,8.71,0,0,1,2.21-6.18,7.71,7.71,0,0,1,5.91-2.37,7,7,0,0,1,4.93,1.78,6.54,6.54,0,0,1,2.16,4.47l-4.47.26c-.15-1.95-1-2.93-2.54-2.93q-2.83,0-2.84,4.67c0,2.07.26,3.38.79,3.94a2.6,2.6,0,0,0,1.94.83c1.48,0,2.36-.94,2.65-2.81Z"/><path class="cls-2" d="M384,245.88h-4.64a11.58,11.58,0,0,1-.23-2.54,6.69,6.69,0,0,1-2.43,2.3,6.41,6.41,0,0,1-2.75.57,5.39,5.39,0,0,1-3.69-1.23,4.21,4.21,0,0,1-1.4-3.33,5.2,5.2,0,0,1,.81-2.82,5.39,5.39,0,0,1,2.64-2,25.13,25.13,0,0,1,6.61-1.09v-.93a2.08,2.08,0,0,0-2.35-2.37,2.48,2.48,0,0,0-2.81,2.37l-4.42-.42a5,5,0,0,1,2.62-3.92,10.33,10.33,0,0,1,4.95-1.16,12.46,12.46,0,0,1,3.12.38,5.31,5.31,0,0,1,2.29,1.16,4.1,4.1,0,0,1,1.1,1.63,10.43,10.43,0,0,1,.29,3v7.37A11.35,11.35,0,0,0,384,245.88Zm-5.08-7.79q-5,.51-5,3a2.19,2.19,0,0,0,.52,1.47,1.87,1.87,0,0,0,1.51.62,2.62,2.62,0,0,0,2.12-1.05,3.94,3.94,0,0,0,.86-2.6Z"/></svg>