<svg width="61" height="61" viewBox="0 0 61 61" fill="none" xmlns="http://www.w3.org/2000/svg">
<path d="M36.7886 8.28334C32.4788 8.28334 28.3456 9.99539 25.2981 13.0429C22.2506 16.0903 20.5386 20.2236 20.5386 24.5333C20.5386 28.5583 22.0136 32.2583 24.4386 35.1083L23.7636 35.7833H21.7886L9.28857 48.2833L13.0386 52.0333L25.5386 39.5333V37.5583L26.2136 36.8833C29.1627 39.3995 32.912 40.7822 36.7886 40.7833C41.0983 40.7833 45.2316 39.0713 48.2791 36.0238C51.3265 32.9764 53.0386 28.8431 53.0386 24.5333C53.0386 20.2236 51.3265 16.0903 48.2791 13.0429C45.2316 9.99539 41.0983 8.28334 36.7886 8.28334ZM36.7886 13.2833C43.0386 13.2833 48.0386 18.2833 48.0386 24.5333C48.0386 30.7833 43.0386 35.7833 36.7886 35.7833C30.5386 35.7833 25.5386 30.7833 25.5386 24.5333C25.5386 18.2833 30.5386 13.2833 36.7886 13.2833Z" fill="#2A8851"/>
</svg>
