<svg width="57" height="61" viewBox="0 0 57 61" fill="none" xmlns="http://www.w3.org/2000/svg">
<path d="M49.5 29.5918C50.6719 30.3926 51.7168 31.3008 52.6348 32.3164C53.5527 33.332 54.3438 34.4453 55.0078 35.6562C55.6719 36.8672 56.1602 38.1465 56.4727 39.4941C56.7852 40.8418 56.9609 42.2188 57 43.625C57 45.9492 56.5605 48.1367 55.6816 50.1875C54.8027 52.2383 53.5918 54.0254 52.0488 55.5488C50.5059 57.0723 48.7188 58.2734 46.6875 59.1523C44.6562 60.0312 42.4688 60.4805 40.125 60.5C38.3477 60.5 36.6289 60.2363 34.9688 59.709C33.3086 59.1816 31.7852 58.4199 30.3984 57.4238C29.0117 56.4277 27.7812 55.2363 26.707 53.8496C25.6328 52.4629 24.8027 50.9297 24.2168 49.25H0.75V4.25H8.25V0.5H12V4.25H38.25V0.5H42V4.25H49.5V29.5918ZM4.5 8V15.5H45.75V8H42V11.75H38.25V8H12V11.75H8.25V8H4.5ZM23.3379 45.5C23.2793 44.8945 23.25 44.2695 23.25 43.625C23.25 41.9453 23.4844 40.3145 23.9531 38.7324C24.4219 37.1504 25.1348 35.6562 26.0918 34.25H23.25V30.5H27V33.0195C27.8008 32.0234 28.6895 31.1445 29.666 30.3828C30.6426 29.6211 31.6973 28.9668 32.8301 28.4199C33.9629 27.873 35.1445 27.4629 36.375 27.1895C37.6055 26.916 38.8555 26.7695 40.125 26.75C42.0781 26.75 43.9531 27.0723 45.75 27.7168V19.25H4.5V45.5H23.3379ZM40.125 56.75C41.9414 56.75 43.6406 56.4082 45.2227 55.7246C46.8047 55.041 48.1914 54.1035 49.3828 52.9121C50.5742 51.7207 51.5117 50.334 52.1953 48.752C52.8789 47.1699 53.2305 45.4609 53.25 43.625C53.25 41.8086 52.9082 40.1094 52.2246 38.5273C51.541 36.9453 50.6035 35.5586 49.4121 34.3672C48.2207 33.1758 46.834 32.2383 45.252 31.5547C43.6699 30.8711 41.9609 30.5195 40.125 30.5C38.3086 30.5 36.6094 30.8418 35.0273 31.5254C33.4453 32.209 32.0586 33.1465 30.8672 34.3379C29.6758 35.5293 28.7383 36.916 28.0547 38.498C27.3711 40.0801 27.0195 41.7891 27 43.625C27 45.4414 27.3418 47.1406 28.0254 48.7227C28.709 50.3047 29.6465 51.6914 30.8379 52.8828C32.0293 54.0742 33.416 55.0117 34.998 55.6953C36.5801 56.3789 38.2891 56.7305 40.125 56.75ZM42 41.75H47.625V45.5H38.25V34.25H42V41.75ZM8.25 30.5H12V34.25H8.25V30.5ZM15.75 30.5H19.5V34.25H15.75V30.5ZM15.75 23H19.5V26.75H15.75V23ZM8.25 38H12V41.75H8.25V38ZM15.75 38H19.5V41.75H15.75V38ZM27 26.75H23.25V23H27V26.75ZM34.5 26.75H30.75V23H34.5V26.75ZM42 26.75H38.25V23H42V26.75Z" fill="#2A8851"/>
</svg>
